<?xml version="1.0" encoding="UTF-8"?>
<svg id="Layer_2" xmlns="http://www.w3.org/2000/svg" viewBox="0 0 624.82 355.65">
  <defs>
    <style>
      .cls-1 {
        fill: #fff;
      }
    </style>
  </defs>
  <g id="Layer_1-2" data-name="Layer_1">
    <g>
      <path class="cls-1" d="M53.15,286.95c0,3.2-.89,5.91-2.66,8.15-1.78,2.24-4.26,3.99-7.46,5.27,8.24,2.7,12.36,7.78,12.36,15.23,0,7.03-2.61,12.23-7.83,15.6-5.22,3.37-12.73,5.06-22.53,5.06-1.21,0-2.63-.04-4.26-.11-1.63-.07-3.32-.21-5.06-.43-1.74-.21-3.46-.48-5.17-.8s-3.27-.76-4.69-1.33c-3.91-1.49-5.86-4.08-5.86-7.78v-49.74c0-1.49.41-2.64,1.22-3.46.82-.82,1.93-1.47,3.36-1.97,2.41-.85,5.43-1.47,9.05-1.86,3.62-.39,7.35-.59,11.18-.59,9.09,0,16.08,1.53,20.98,4.58,4.9,3.05,7.35,7.78,7.35,14.17ZM18.11,295.26h7.78c3.05,0,5.27-.57,6.66-1.7,1.38-1.13,2.08-2.8,2.08-5.01,0-1.92-.8-3.44-2.4-4.58-1.6-1.13-3.99-1.7-7.19-1.7-1.07,0-2.29.04-3.67.11-1.38.07-2.47.18-3.25.32v12.57ZM36.32,314.75c0-4.33-2.91-6.5-8.73-6.5h-9.48v13c.99.28,2.27.48,3.83.59,1.56.11,3.05.16,4.47.16,2.84,0,5.2-.59,7.08-1.76,1.88-1.17,2.82-3,2.82-5.49Z"/>
      <path class="cls-1" d="M82.34,334.46c-.78.21-1.9.43-3.36.64-1.46.21-3.04.32-4.74.32-3.55,0-6.11-.59-7.67-1.76-1.56-1.17-2.34-3.42-2.34-6.76v-31.64c0-2.06.53-3.85,1.6-5.38,1.07-1.53,2.52-2.86,4.37-3.99,2.48-1.49,5.38-2.63,8.68-3.41,3.3-.78,6.76-1.17,10.39-1.17,7.74,0,11.61,2.73,11.61,8.2,0,1.28-.18,2.47-.53,3.57-.36,1.1-.78,2.04-1.28,2.82-1.35-.28-3.3-.43-5.86-.43-1.85,0-3.75.21-5.7.64-1.95.43-3.67,1.07-5.17,1.92v36.43Z"/>
      <path class="cls-1" d="M107.58,268.42c0-2.7.91-4.97,2.72-6.82,1.81-1.85,4.21-2.77,7.19-2.77s5.38.92,7.19,2.77c1.81,1.85,2.72,4.12,2.72,6.82s-.91,4.97-2.72,6.82c-1.81,1.85-4.21,2.77-7.19,2.77s-5.38-.92-7.19-2.77c-1.81-1.85-2.72-4.12-2.72-6.82ZM108.43,283.54c.78-.21,1.9-.43,3.36-.64,1.45-.21,3.04-.32,4.74-.32,3.55,0,6.11.59,7.67,1.76,1.56,1.17,2.34,3.43,2.34,6.76v43.35c-.78.21-1.9.43-3.35.64-1.46.21-3.04.32-4.74.32-3.55,0-6.11-.59-7.67-1.76-1.56-1.17-2.34-3.42-2.34-6.76v-43.35Z"/>
      <path class="cls-1" d="M170,330.62c-1.42.57-3,1.01-4.74,1.33-1.74.32-3.67.48-5.81.48-3.2,0-6.23-.44-9.11-1.33-2.88-.89-5.4-2.34-7.56-4.37-2.17-2.02-3.89-4.63-5.17-7.83-1.28-3.2-1.92-7.1-1.92-11.72,0-4.26.66-8,1.97-11.24,1.31-3.23,3.16-5.95,5.54-8.15,2.38-2.2,5.27-3.85,8.68-4.95,3.41-1.1,7.21-1.65,11.4-1.65,1.99,0,3.94.14,5.86.43,1.92.29,3.71.68,5.38,1.17,1.67.5,3.18,1.03,4.53,1.6,1.35.57,2.49,1.17,3.41,1.81,1.42,1,2.54,2.11,3.36,3.36.82,1.24,1.22,2.82,1.22,4.74v39.52c0,3.76-.69,7.01-2.08,9.75-1.38,2.73-3.3,5.01-5.75,6.82s-5.33,3.14-8.63,3.99c-3.3.85-6.83,1.28-10.6,1.28s-7.21-.3-10.12-.91c-2.91-.6-5.22-1.47-6.92-2.61-2.56-1.7-3.83-4.12-3.83-7.24,0-1.63.34-3.13,1.01-4.47.67-1.35,1.44-2.34,2.29-2.98,2.06,1.13,4.38,2.09,6.98,2.88,2.59.78,5.31,1.17,8.15,1.17,3.76,0,6.78-.64,9.05-1.92,2.27-1.28,3.41-3.34,3.41-6.18v-2.77ZM162.86,318.91c1.42,0,2.68-.16,3.78-.48,1.1-.32,2.11-.76,3.04-1.33v-20.45c-.78-.35-1.58-.66-2.4-.91-.82-.25-1.9-.37-3.25-.37-3.05,0-5.54.94-7.46,2.82-1.92,1.88-2.88,4.92-2.88,9.11,0,4.47.87,7.53,2.61,9.16,1.74,1.63,3.92,2.45,6.55,2.45Z"/>
      <path class="cls-1" d="M246,335.1c-1.46.21-3.04.32-4.74.32-3.55,0-6.11-.59-7.67-1.76-1.56-1.17-2.34-3.42-2.34-6.76v-23.65c0-2.91-.73-4.95-2.18-6.12-1.46-1.17-3.25-1.76-5.38-1.76-1.42,0-2.72.18-3.89.53-1.17.36-2.25.82-3.25,1.38v37.17c-.78.21-1.9.43-3.36.64-1.46.21-3.04.32-4.74.32-3.55,0-6.11-.59-7.67-1.76-1.56-1.17-2.34-3.42-2.34-6.76v-61.78c.78-.21,1.9-.43,3.36-.64,1.45-.21,3.04-.32,4.74-.32,3.55,0,6.11.59,7.67,1.76,1.56,1.17,2.34,3.43,2.34,6.76v10.54c1.42-.57,3.02-1.05,4.79-1.44,1.77-.39,3.69-.59,5.75-.59,7.03,0,12.5,1.76,16.4,5.27,3.91,3.51,5.86,8.75,5.86,15.71v32.27c-.78.21-1.9.43-3.35.64Z"/>
      <path class="cls-1" d="M280.24,336.16c-6.25,0-11.06-1.42-14.43-4.26-3.37-2.84-5.06-7.46-5.06-13.85v-47.29c.78-.21,1.9-.44,3.36-.69,1.45-.25,3-.37,4.63-.37,3.48,0,6,.6,7.56,1.81,1.56,1.21,2.34,3.45,2.34,6.71v5.75h13.95c.43.78.83,1.76,1.23,2.93.39,1.17.59,2.47.59,3.89,0,2.49-.55,4.28-1.65,5.38s-2.57,1.65-4.42,1.65h-9.69v18.96c0,1.85.59,3.16,1.76,3.94,1.17.78,2.82,1.17,4.95,1.17,1.06,0,2.17-.09,3.3-.27,1.13-.18,2.13-.41,2.98-.69.64.78,1.19,1.65,1.65,2.61.46.96.69,2.11.69,3.46,0,2.7-1.01,4.9-3.04,6.6-2.02,1.71-5.59,2.56-10.71,2.56Z"/>
      <path class="cls-1" d="M328.17,332.22c-1.78-1.77-2.66-4.19-2.66-7.24v-55.18c.85-.14,2.09-.34,3.73-.59,1.63-.25,3.27-.37,4.9-.37,3.55,0,6.11.6,7.67,1.81,1.56,1.21,2.34,3.55,2.34,7.03v42.18h24.39c.5.78.96,1.81,1.38,3.09.43,1.28.64,2.66.64,4.15,0,2.63-.57,4.58-1.7,5.86-1.14,1.28-2.7,1.92-4.69,1.92h-28.76c-3.05,0-5.47-.89-7.24-2.66Z"/>
      <path class="cls-1" d="M378.34,268.42c0-2.7.91-4.97,2.72-6.82,1.81-1.85,4.21-2.77,7.19-2.77s5.38.92,7.19,2.77c1.81,1.85,2.72,4.12,2.72,6.82s-.91,4.97-2.72,6.82c-1.81,1.85-4.21,2.77-7.19,2.77s-5.38-.92-7.19-2.77c-1.81-1.85-2.72-4.12-2.72-6.82ZM379.19,283.54c.78-.21,1.9-.43,3.36-.64,1.45-.21,3.04-.32,4.74-.32,3.55,0,6.11.59,7.67,1.76,1.56,1.17,2.34,3.43,2.34,6.76v43.35c-.78.21-1.9.43-3.35.64-1.46.21-3.04.32-4.74.32-3.55,0-6.11-.59-7.67-1.76-1.56-1.17-2.34-3.42-2.34-6.76v-43.35Z"/>
      <path class="cls-1" d="M449.92,281.73c2.48,0,4.58.53,6.28,1.6,1.7,1.07,2.56,2.91,2.56,5.54,0,1.14-.25,2.79-.75,4.95-.5,2.17-1.17,4.62-2.02,7.35-.85,2.73-1.81,5.63-2.88,8.68-1.07,3.05-2.17,6.02-3.3,8.89-1.14,2.88-2.27,5.58-3.41,8.09-1.14,2.52-2.13,4.56-2.98,6.12-1,.78-2.45,1.42-4.37,1.92s-4.08.75-6.5.75c-2.77,0-5.17-.36-7.19-1.07-2.02-.71-3.43-1.85-4.21-3.41-.64-1.21-1.4-2.88-2.29-5.01-.89-2.13-1.83-4.54-2.82-7.24-1-2.7-2.02-5.54-3.09-8.52-1.07-2.98-2.08-5.96-3.04-8.95s-1.83-5.86-2.61-8.63c-.78-2.77-1.42-5.22-1.92-7.35.99-.99,2.33-1.86,4-2.61,1.67-.75,3.5-1.12,5.49-1.12,2.48,0,4.53.52,6.12,1.54,1.6,1.03,2.79,2.97,3.57,5.8l4.15,16.3c.78,3.2,1.53,6.09,2.24,8.68.71,2.59,1.24,4.6,1.6,6.02h.53c1.35-5.25,2.77-11.08,4.26-17.47,1.49-6.39,2.84-12.67,4.05-18.85,1.21-.64,2.57-1.14,4.1-1.49,1.53-.35,3-.53,4.42-.53Z"/>
      <path class="cls-1" d="M481.87,315.82c.99,2.56,2.66,4.35,5.01,5.38,2.34,1.03,4.97,1.54,7.88,1.54s5.82-.37,8.52-1.12c2.7-.75,4.86-1.61,6.5-2.61,1.13.71,2.09,1.71,2.88,2.98.78,1.28,1.17,2.63,1.17,4.05,0,1.78-.5,3.3-1.49,4.58-1,1.28-2.4,2.34-4.21,3.2-1.81.85-3.96,1.47-6.44,1.86-2.49.39-5.22.59-8.2.59-4.19,0-8.08-.59-11.66-1.76-3.59-1.17-6.69-2.93-9.32-5.27-2.63-2.34-4.69-5.29-6.18-8.84-1.49-3.55-2.24-7.7-2.24-12.46s.76-8.72,2.29-12.09c1.53-3.37,3.55-6.14,6.07-8.31,2.52-2.17,5.38-3.76,8.58-4.79,3.2-1.03,6.46-1.54,9.8-1.54,3.76,0,7.19.57,10.28,1.7,3.09,1.14,5.75,2.7,7.99,4.69,2.24,1.99,3.96,4.37,5.17,7.14,1.21,2.77,1.81,5.79,1.81,9.05,0,2.42-.68,4.26-2.02,5.54-1.35,1.28-3.23,2.1-5.65,2.45l-26.52,4.05ZM490.92,294.41c-2.7,0-4.95.82-6.76,2.45-1.81,1.63-2.89,3.94-3.25,6.92l18.11-2.98c-.07-.71-.29-1.44-.64-2.18-.36-.75-.85-1.44-1.49-2.08s-1.46-1.15-2.45-1.54c-1-.39-2.17-.59-3.52-.59Z"/>
      <path class="cls-1" d="M568.47,319.12c0,5.4-2.02,9.62-6.07,12.67-4.05,3.05-10.01,4.58-17.89,4.58-2.98,0-5.75-.21-8.31-.64-2.56-.43-4.74-1.08-6.55-1.97-1.81-.89-3.23-2.01-4.26-3.36-1.03-1.35-1.54-2.95-1.54-4.79,0-1.7.35-3.14,1.07-4.31.71-1.17,1.56-2.15,2.56-2.93,2.06,1.14,4.42,2.15,7.08,3.04,2.66.89,5.73,1.33,9.21,1.33,2.2,0,3.89-.32,5.06-.96,1.17-.64,1.76-1.49,1.76-2.56,0-.99-.43-1.77-1.28-2.34-.85-.57-2.27-1.03-4.26-1.38l-3.2-.64c-6.18-1.21-10.78-3.11-13.79-5.7-3.02-2.59-4.53-6.3-4.53-11.13,0-2.63.57-5.01,1.7-7.14,1.13-2.13,2.73-3.9,4.79-5.33,2.06-1.42,4.53-2.52,7.4-3.3,2.88-.78,6.05-1.17,9.53-1.17,2.63,0,5.09.2,7.4.59,2.31.39,4.31.98,6.02,1.76,1.7.78,3.05,1.79,4.05,3.04.99,1.24,1.49,2.72,1.49,4.42s-.3,3.04-.91,4.21c-.6,1.17-1.37,2.15-2.29,2.93-.57-.35-1.42-.73-2.56-1.12-1.14-.39-2.38-.75-3.73-1.07-1.35-.32-2.72-.59-4.1-.8s-2.65-.32-3.78-.32c-2.34,0-4.15.27-5.43.8s-1.92,1.37-1.92,2.5c0,.78.35,1.42,1.07,1.92.71.5,2.06.96,4.05,1.38l3.3.75c6.82,1.56,11.66,3.71,14.54,6.44,2.88,2.73,4.31,6.27,4.31,10.6Z"/>
    </g>
    <g>
      <path class="cls-1" d="M591.85,0c-.12,5.99-.51,10.19-1.25,14.94-.78,5-2.07,9.9-3.69,14.69-3.15,9.35-7.59,18.23-12.47,26.79-7.25,12.73-15.49,25.45-17.57,39.95-3.78,26.38,4.69,45.37,18.6,56.57.02.02.02.04.04.06-2.41-11.14,3.94-21.56,11.23-30.33,8.96-10.76,17.89-21.61,25.33-33.48,6.7-10.69,12.26-22.57,12.72-35.18.73-20.18-14.16-45.63-32.94-54.02Z"/>
      <path class="cls-1" d="M595.84,158.94c-5.2.1-14.18,4.04-19.9,6.83-10.37-6.34-18.75-16.79-26.25-27.27-16.69-23.32-18.64-49.79-39.83-76.86-19.72-25.2-38.66-34.12-68.99-43.29-3.54,26.45-2.02,68.78,10.34,93.49,20.31,40.6,50.88,62.53,112.37,59.68-18.46,6.33-52.22,13.64-77.06-5.47.49.38,1.04,6.75,1.49,7.78,1.81,4.2,5.06,7.14,8.78,9.66,1.81,1.23,4.29,2.22,5.84,3.76,2.29,2.28,2.52,5.4,5.49,7.2,3.18,1.92,6.72,1.62,10.25,1.82.33,6.75,9.32,8.28,14.95,7.94,10.91-.31,22.04-1.28,32.34-5.15,9.45-3.55,16.94-9.64,23.18-17.24.14-.04.28-.06.42-.11,12.11-15.98,19.64-2.38,20.49-4.85.77-2.23-3.26-18.13-13.91-17.93Z"/>
    </g>
  </g>
</svg>